<svg width="200" height="60" viewBox="0 0 200 60" xmlns="http://www.w3.org/2000/svg">
  <!-- Background -->
  <rect width="200" height="60" rx="8" fill="#f8fafc" stroke="#e2e8f0" stroke-width="1" />
  
  <!-- Brain Icon -->
  <g transform="translate(15, 15)">
    <path d="M15 5c-2.5 0-4.5 2-4.5 4.5 0 1.5 0.7 2.8 1.8 3.6-0.3 0.6-0.3 1.3 0 1.9 0.5 1 1.5 1.5 2.7 1.5h0c0.8 0 1.5-0.3 2-0.8 0.5 0.5 1.2 0.8 2 0.8h0c1.2 0 2.2-0.5 2.7-1.5 0.3-0.6 0.3-1.3 0-1.9 1.1-0.8 1.8-2.1 1.8-3.6 0-2.5-2-4.5-4.5-4.5-1 0-1.9 0.3-2.7 0.8-0.8-0.5-1.7-0.8-2.7-0.8z" fill="#2563eb" opacity="0.9"/>
    <circle cx="12" cy="12" r="2" fill="white" opacity="0.9"/>
    <circle cx="18" cy="12" r="2" fill="white" opacity="0.9"/>
  </g>
  
  <!-- Text -->
  <text x="50" y="25" font-family="Arial, sans-serif" font-size="16" font-weight="bold" fill="#1e293b">SymptomWise</text>
  <text x="50" y="40" font-family="Arial, sans-serif" font-size="10" fill="#64748b" opacity="0.9">AI-Powered Healthcare</text>
</svg>